# xmcd
#
# Track frame offsets:
#	150
#	17137
#	29934
#	42528
#	61402
#	77369
#	92157
#	105220
#	116703
#	133498
#
# Disc length: 1929 seconds
#
# Revision: 0
# Processed by: cddbd v1.4PL0 Copyright (c) Steve Scherf et al.
# Submitted via: dBpowerAMP V4.0
#
DISCID=8807870a
DTITLE=Raúl Sandoval - Serenata
DYEAR=2003
DGENRE=Charra
TTITLE0=Serenata
TTITLE1=El enyerbado
TTITLE2=Morena de mi corazón (canción del mariachi)
TTITLE3=Cuanto te quiero, cuanto te extraño
TTITLE4=Mariachi y tequila
TTITLE5=Señora del amor
TTITLE6=El muchacho triste
TTITLE7=Busco maestra
TTITLE8=Traición a la mexicana
TTITLE9=Osito carpintero
EXTD=Submitted by STONE
EXTT0=
EXTT1=
EXTT2=
EXTT3=
EXTT4=
EXTT5=
EXTT6=
EXTT7=
EXTT8=
EXTT9=
PLAYORDER=
